# AST/ASF file generated using VICON BodyLanguage
# -----------------------------------------------
:version 1.10
:name VICON
:units
  mass 1.0
  length 0.45
  angle deg
:documentation
   .ast/.asf automatically generated from VICON data using
   VICON BodyBuilder and BodyLanguage model FoxedUp or BRILLIANT.MOD
:root
   order TX TY TZ RX RY RZ
   axis XYZ
   position 0 0 0  
   orientation 0 0 0 
:bonedata
  begin
     id 1 
     name lhipjoint
     direction 0.627412 -0.730575 0.26947 
     length 2.49821 
     axis 0 0 0  XYZ
  end
  begin
     id 2 
     name lfemur
     direction 0.34202 -0.939693 0  
     length 6.89165  
     axis 0 0 20  XYZ
    dof rx ry rz
    limits (-160.0 20.0)
           (-70.0 70.0)
           (-60.0 70.0)
  end
  begin
     id 3 
     name ltibia
     direction 0.34202 -0.939693 0   
     length 7.91287   
     axis 0 0 20   XYZ
    dof rx
    limits (-10.0 170.0)
  end
  begin
     id 4 
     name lfoot
     direction 0.0941675 -0.258723 0.96135   
     length 2.16919   
     axis -90 7.62852e-016 20   XYZ
    dof rx rz
    limits (-45.0 90.0)
           (-70.0 20.0)
  end
  begin
     id 5 
     name ltoes
     direction 1.5347e-011 -4.21941e-011 1   
     length 1.08535   
     axis -90 7.62852e-016 20   XYZ
    dof rx
    limits (-90.0 20.0)
  end
  begin
     id 6 
     name rhipjoint
     direction -0.614241 -0.740361 0.27308   
     length 2.46519  
     axis 0 0 0  XYZ 
  end
  begin
     id 7 
     name rfemur
     direction -0.34202 -0.939693 0   
     length 7.27512   
     axis 0 0 -20   XYZ
    dof rx ry rz
    limits (-160.0 20.0)
           (-70.0 70.0)
           (-70.0 60.0)
  end
  begin
     id 8 
     name rtibia
     direction -0.34202 -0.939693 0   
     length 7.89523   
     axis 0 0 -20   XYZ
    dof rx
    limits (-10.0 170.0)
 end
 begin
     id 9 
     name rfoot
     direction -0.0860444 -0.236405 0.967837   
     length 2.29534  
     axis -90 -7.62852e-016 -20   XYZ
    dof rx rz
    limits (-45.0 90.0)
           (-20.0 70.0)
  end
  begin
     id 10 
     name rtoes
     direction -1.53608e-011 -4.21861e-011 1   
     length 1.14915   
     axis -90 -7.62852e-016 -20   XYZ
    dof rx
    limits (-90.0 20.0)
  end
  begin
     id 11 
     name lowerback
     direction -0.00734074 0.997215 -0.0742143   
     length 2.13469   
     axis 0 0 0   XYZ
    dof rx ry rz
    limits (-20.0 45.0)
           (-30.0 30.0)
           (-30.0 30.0)
  end
  begin
     id 12 
     name upperback
     direction 0.0285728 0.99958 -0.00488656   
     length 2.13416   
     axis 0 0 0   XYZ
    dof rx ry rz
    limits (-20.0 45.0)
           (-30.0 30.0)
           (-30.0 30.0)
  end
  begin
     id 13 
     name thorax
     direction 0.0316844 0.999056 0.0297249   
     length 2.14463   
     axis 0 0 0   XYZ
    dof rx ry rz
    limits (-20.0 45.0)
           (-30.0 30.0)
           (-30.0 30.0)
  end
  begin
     id 14 
     name lowerneck
     direction -0.0281545 0.996802 0.0747864   
     length 1.79004   
     axis 0 0 0   XYZ
    dof rx ry rz
    limits (-20.0 45.0)
           (-30.0 30.0)
           (-30.0 30.0)
  end
  begin
     id 15 
     name upperneck
     direction -0.00100185 0.982732 -0.185031   
     length 1.79988   
     axis 0 0 0   XYZ
    dof rx ry rz
    limits (-20.0 45.0)
           (-30.0 30.0)
           (-30.0 30.0)
  end
  begin
     id 16
     name head
     direction 0.00403747 0.997539 -0.0700022  
     length 1.81696  
     axis 0 0 0   XYZ
    dof rx ry rz
    limits (-20.0 45.0)
           (-30.0 30.0)
           (-30.0 30.0)
  end
  begin
     id 17 
     name lclavicle
     direction 0.959882 0.242905 -0.140082  
     length 3.87755  
     axis 0 0 0   XYZ
    dof ry rz
    limits (-20.0 10.0)
           (0.0 20.0)
  end
  begin
     id 18 
     name lhumerus
     direction 1 -4.4895e-011 3.76166e-027   
     length 5.14601   
     axis 180 -30 -90   XYZ
    dof rx ry rz
    limits (-60.0 90.0)
           (-90.0 90.0)
           (-90.0 90.0)
  end
  begin
     id 19
     name lradius
     direction 1 -4.48966e-011 -3.24039e-027   
     length 3.64452   
     axis 180 -30 -90   XYZ
    dof rx
    limits (-10.0 170.0)
  end
  begin
     id 20
     name lwrist
     direction 1 -4.48999e-011 2.57119e-027   
     length 1.82226   
     axis -1.61769e-015 90 90   XYZ
    dof ry
    limits (-180.0 0.0)
 end
  begin
     id 21 
     name lhand
     direction 1 -4.48961e-011 5.13984e-027   
     length 0.56228   
     axis -3.27988e-015 90 90   XYZ
    dof rx rz
    limits (-90.0 90.0)
           (-45.0 45.0)
  end
  begin
     id 22 
     name lfingers
     direction 1 -4.48991e-011 1.02836e-026   
     length 0.453325   
     axis -6.5598e-015 90 90   XYZ
    dof rx
    limits (0.0 90.0)
  end
  begin
     id 23
     name lthumb
     direction 0.707107 -6.34956e-011 0.707107   
     length 0.650886   
     axis -90 45 2.19363e-014   XYZ
    dof rx rz
    limits (-45.0 45.0)
           (-45.0 45.0)
  end
  begin
     id 24 
     name rclavicle
     direction -0.929201 0.345171 -0.132073   
     length 3.55416  
     axis 0 0 0   XYZ 
    dof ry rz
    limits (-10.0 20.0)
           (-20.0 0.0)
  end
  begin
     id 25 
     name rhumerus
     direction -1 -4.48979e-011 4.53734e-027  
     length 5.33913   
     axis 180 30 90   XYZ
    dof rx ry rz
    limits (-90.0 60.0)
           (-90.0 90.0)
           (-90.0 90.0)
  end
  begin
     id 26 
     name rradius
     direction -1 -4.4896e-011 -2.24007e-027   
     length 3.56478   
     axis 180 30 90   XYZ
    dof rx
    limits (-10.0 170.0)
  end
  begin
     id 27 
     name rwrist
     direction -1 -4.48923e-011 2.56866e-027   
     length 1.78239   
     axis -1.61769e-015 -90 -90   XYZ
    dof ry
    limits (-180.0 0.0)
  end
  begin
     id 28
     name rhand
     direction -1 -4.48914e-011 5.13667e-027   
     length 0.857474   
     axis -3.27988e-015 -90 -90   XYZ
    dof rx rz
    limits (-90.0 90.0)
           (-45.0 45.0)
  end
  begin
     id 29
     name rfingers
     direction -1 -4.49112e-011 1.02998e-026   
     length 0.691318   
     axis -6.5598e-015 -90 -90   XYZ
    dof rx
    limits (0.0 90.0)
  end
  begin
     id 30
     name rthumb
     direction -0.707107 -6.34979e-011 0.707107   
     length 0.992598   
     axis -90 -45 -2.19363e-014   XYZ
    dof rx rz
    limits (-45.0 45.0)
           (-45.0 45.0)
  end
:hierarchy
  begin
    root lhipjoint rhipjoint lowerback
    lhipjoint lfemur
    lfemur ltibia
    ltibia lfoot
    lfoot ltoes
    rhipjoint rfemur
    rfemur rtibia
    rtibia rfoot
    rfoot rtoes
    lowerback upperback
    upperback thorax
    thorax lowerneck lclavicle rclavicle
    lowerneck upperneck
    upperneck head
    lclavicle lhumerus
    lhumerus lradius
    lradius lwrist
    lwrist lhand lthumb
    lhand lfingers
    rclavicle rhumerus
    rhumerus rradius
    rradius rwrist
    rwrist rhand rthumb
    rhand rfingers
  end

#!OML:ASF F:\VICON\USERDATA\INSTALL\Justin4\Justin4.ASF
:FULLY-SPECIFIED
:DEGREES
1
root 2.63418 15.8511 17.0682 -51.5363 -85.2164 51.5966
lowerback 11.7369 2.07133 -4.08804
upperback 4.18148 2.0353 -1.99415
thorax -2.27316 0.925107 -0.0453803
lowerneck -8.50342 1.89053 -12.8269
upperneck 23.7719 3.89067 2.19069
head 8.55296 0.7229 3.23277
rclavicle -1.23743e-014 2.24627e-014
rhumerus -32.9362 21.8152 -97.2486
rradius 132.884
rwrist 7.11728
rhand -19.0523 22.0034
rfingers 7.12502
rthumb 7.25471 -7.85222
lclavicle -1.23743e-014 2.24627e-014
lhumerus 0.62032 -16.5075 89.704
lradius 134.502
lwrist 12.0637
lhand -8.49372 9.42514
lfingers 7.12502
lthumb 17.4337 38.6633
rfemur -14.1244 -17.4526 19.5789
rtibia 69.3845
rfoot -30.0979 -4.98765
rtoes -6.82304
lfemur -28.444 -2.21121 -5.38545
ltibia 47.67
lfoot -14.7066 -3.34585
ltoes -30.3691
2
root 2.72425 15.9272 17.0441 -47.0212 -83.7679 46.8913
lowerback 12.1864 1.93519 -5.08005
upperback 4.39508 1.70427 -2.01079
thorax -2.30965 0.746853 0.529085
lowerneck -8.0499 1.72499 -12.5115
upperneck 23.3628 3.56555 2.05227
head 8.36283 0.609497 3.08944
rclavicle 2.93207e-015 2.90226e-014
rhumerus -33.0076 22.6397 -97.8874
rradius 132.783
rwrist 7.96103
rhand -19.2857 22.086
rfingers 7.12502
rthumb 7.02936 -7.77726
lclavicle 2.93207e-015 2.90226e-014
lhumerus 0.541032 -16.9542 89.6885
lradius 134.142
lwrist 11.661
lhand -7.9483 9.2586
lfingers 7.12502
lthumb 17.9586 38.4495
rfemur -14.4389 -18.485 18.4532
rtibia 69.7046
rfoot -28.9435 -3.4709
rtoes 0.708798
lfemur -28.3651 -2.56411 -6.58035
ltibia 46.3409
lfoot -13.4083 -3.22524
ltoes -34.0855
3
root 2.81076 16.0203 17.0197 -46.4622 -82.3985 46.076
lowerback 12.6794 2.04417 -5.96175
upperback 4.67394 1.68834 -2.19352
thorax -2.30021 0.720043 0.824692
lowerneck -7.58715 1.43828 -11.9886
upperneck 22.9155 3.04926 1.90755
head 8.17347 0.42582 2.8959
rclavicle 1.17283e-014 -1.55052e-014
rhumerus -32.9305 22.5794 -97.2402
rradius 133.59
rwrist 7.083
rhand -18.4512 21.9212
rfingers 7.12502
rthumb 7.83482 -7.9136
lclavicle 1.17283e-014 -1.55052e-014
lhumerus 0.654765 -17.8623 89.3361
lradius 133.739
lwrist 10.6748
lhand -9.31875 9.67877
lfingers 7.12502
lthumb 16.6396 38.9855
rfemur -14.4587 -19.1864 17.168
rtibia 69.5904
rfoot -27.4659 -2.53852
rtoes -0.407923
lfemur -27.7618 -2.3754 -7.92822
ltibia 44.4994
lfoot -11.9601 -3.83768
ltoes -35.3111
4
root 2.90388 16.1359 16.9784 -40.825 -81.6205 40.4143
lowerback 13.0854 2.07499 -6.01315
upperback 4.83124 1.69671 -2.02883
thorax -2.36118 0.719128 1.0158
lowerneck -7.2138 1.10186 -12.0669
upperneck 22.609 2.47373 2.25128
head 8.03492 0.201355 2.96689
rclavicle 1.32192e-014 5.56597e-015
rhumerus -32.8725 21.981 -95.0801
rradius 135.132
rwrist 5.10614
rhand -18.0313 22.0614
rfingers 7.12502
rthumb 8.24011 -7.75787
lclavicle 1.32192e-014 5.56597e-015
lhumerus 0.841393 -18.7212 89.0501
lradius 133.287
lwrist 9.97261
lhand -11.0802 10.3308
lfingers 7.12502
lthumb 14.9433 39.7717
rfemur -14.7565 -19.6504 17.2685
rtibia 69.2646
rfoot -25.8577 -1.59274
rtoes 0.0305377
lfemur -27.4567 -2.05921 -8.10276
ltibia 42.5419
lfoot -10.1006 -4.96985
ltoes -34.0896
5
root 2.99685 16.2744 16.8972 -35.5111 -80.4835 35.7116
lowerback 12.9496 1.99371 -6.64257
upperback 4.83277 1.53735 -1.82261
thorax -2.29401 0.635794 1.6105
lowerneck -7.00334 0.816286 -12.343
upperneck 22.3437 1.96497 2.89262
head 7.93006 0.0173718 3.18021
rclavicle 3.41661e-014 -2.29596e-014
rhumerus -32.8496 22.2155 -95.1743
rradius 135.14
rwrist 6.39556
rhand -19.935 23.0339
rfingers 7.12502
rthumb 6.40259 -6.84937
lclavicle 3.41661e-014 -2.29596e-014
lhumerus 1.0927 -19.0978 88.7437
lradius 132.88
lwrist 10.4992
lhand -10.5202 10.0323
lfingers 7.12502
lthumb 15.4827 39.4323
rfemur -15.7981 -20.1737 17.6333
rtibia 68.7094
rfoot -23.84 -0.546232
rtoes 1.47313
lfemur -27.7949 -2.28874 -8.3283
ltibia 40.4231
lfoot -7.85478 -5.48867
ltoes -32.4503
6
root 3.09351 16.4138 16.8339 -29.6046 -79.9004 30.1241
lowerback 13.0409 1.92422 -6.31859
upperback 4.9437 1.49394 -1.58544
thorax -2.22315 0.612327 1.68342
lowerneck -7.15418 0.534756 -12.0961
upperneck 22.1147 1.51748 3.18577
head 7.91009 -0.127448 3.20025
rclavicle 1.47349e-014 2.98177e-016
rhumerus -32.5887 22.6013 -95.0891
rradius 135.244
rwrist 7.33374
rhand -21.3682 23.4171
rfingers 7.12502
rthumb 5.01887 -6.50349
lclavicle 1.47349e-014 2.98177e-016
lhumerus 1.14197 -19.4808 88.4317
lradius 132.763
lwrist 10.8962
lhand -9.41561 9.82667
lfingers 7.12502
lthumb 16.5463 39.1412
rfemur -16.4349 -20.5376 18.5147
rtibia 67.9932
rfoot -21.6357 0.206109
rtoes 1.71835
lfemur -27.811 -2.18486 -7.89285
ltibia 38.4248
lfoot -5.52675 -5.96086
ltoes -30.0608
7
root 3.20246 16.5374 16.7933 -17.933 -79.7973 18.5844
lowerback 13.4041 1.66471 -4.26624
upperback 4.99745 1.40783 -1.18669
thorax -2.32769 0.587853 0.955966
lowerneck -7.88348 0.145158 -11.3108
upperneck 22.3654 0.985262 3.12439
head 8.16953 -0.320595 3.01638
rclavicle 3.05631e-014 -3.72721e-014
rhumerus -32.1792 22.7521 -94.946
rradius 135.666
rwrist 7.05095
rhand -21.2412 23.2253
rfingers 7.12502
rthumb 5.14145 -6.6923
lclavicle 3.05631e-014 -3.72721e-014
lhumerus 0.866013 -19.9837 88.1744
lradius 132.836
lwrist 10.7162
lhand -9.16626 9.98412
lfingers 7.12502
lthumb 16.7864 39.2785
rfemur -17.0104 -21.0654 20.8798
rtibia 67.2406
rfoot -19.3674 0.00748931
rtoes -1.80245
lfemur -27.9006 -1.44254 -6.13065
ltibia 36.4351
lfoot -3.20697 -6.44067
ltoes -30.4222
8
root 3.31173 16.6265 16.6985 -8.83653 -78.3381 10.8625
lowerback 12.879 1.22569 -3.62523
upperback 4.62875 0.968234 -0.892356
thorax -2.40529 0.391527 0.974235
lowerneck -7.34697 0.155231 -11.1916
upperneck 21.51 0.755161 3.97826
head 7.78656 -0.301499 3.24628
rclavicle 2.02263e-014 -1.25234e-014
rhumerus -32.0322 22.4481 -95.4888
rradius 135.945
rwrist 6.86395
rhand -20.0725 23.1373
rfingers 7.12502
rthumb 6.26984 -6.74995
lclavicle 2.02263e-014 -1.25234e-014
lhumerus 0.421341 -20.7089 87.9818
lradius 132.941
lwrist 10.354
lhand -9.33119 10.0067
lfingers 7.12502
lthumb 16.6276 39.3145
rfemur -19.5834 -22.2626 23.2881
rtibia 66.997
rfoot -16.8507 -1.18025
rtoes -10.9779
lfemur -29.7407 -1.03741 -5.11857
ltibia 34.4329
lfoot -1.15551 -6.19286
ltoes -33.969
9
root 3.40543 16.763 16.6705 -14.2651 -77.4221 16.4097
lowerback 13.4471 1.27301 -4.28208
upperback 4.68082 0.884289 -1.4601
thorax -2.65345 0.346708 0.756687
lowerneck -7.2792 -0.0678739 -11.3058
upperneck 21.1952 0.296448 4.84001
head 7.69521 -0.433313 3.51126
rclavicle -2.28602e-015 -3.18055e-015
rhumerus -32.0642 22.221 -96.1183
rradius 136
rwrist 7.41567
rhand -18.4585 22.799
rfingers 7.12502
rthumb 7.82779 -7.03605
lclavicle -2.28602e-015 -3.18055e-015
lhumerus -0.0507743 -21.3943 87.8628
lradius 132.976
lwrist 10.0398
lhand -9.68979 9.90605
lfingers 7.12502
lthumb 16.2823 39.2424
rfemur -20.1104 -22.9657 21.4687
rtibia 66.9261
rfoot -14.3611 0.293608
rtoes -15.0544
lfemur -28.9078 -1.67972 -6.87494
ltibia 32.5242
lfoot -0.620717 -3.27984
ltoes -37.242
10
root 3.48457 16.8981 16.6363 -19.3866 -76.2558 22.2133
lowerback 13.2134 1.25426 -5.2802
upperback 4.69743 0.716745 -2.07512
thorax -2.5031 0.255363 0.703531
lowerneck -7.40057 -0.284921 -11.1529
upperneck 20.9147 -0.0974354 5.35883
head 7.65156 -0.545732 3.62348
rclavicle -1.56046e-014 1.05356e-014
rhumerus -31.7638 22.3989 -96.3515
rradius 136.042
rwrist 7.90798
rhand -17.84 22.2034
rfingers 7.12502
rthumb 8.42476 -7.60852
lclavicle -1.56046e-014 1.05356e-014
lhumerus -0.283824 -21.7066 87.5022
lradius 132.99
lwrist 9.96061
lhand -9.35574 9.68141
lfingers 7.12502
lthumb 16.604 38.9911
rfemur -21.4925 -23.2358 19.401
rtibia 67.1339
rfoot -11.4579 3.18643
rtoes -9.4783
lfemur -28.4936 -3.18609 -8.61757
ltibia 30.8829
lfoot -0.807194 0.993123
ltoes -36.4626
11
root 3.58814 17.0216 16.6264 -16.3562 -75.7519 19.2865
lowerback 13.1831 0.938941 -3.66323
upperback 5.02793 0.503136 -2.29393
thorax -2.11971 0.148498 -0.396908
lowerneck -7.71822 -0.382127 -10.6244
upperneck 20.3629 -0.298834 5.65772
head 7.53835 -0.54623 3.61026
rclavicle 2.88238e-015 -3.83654e-014
rhumerus -30.7143 22.4697 -96.504
rradius 136.139
rwrist 7.65433
rhand -17.0989 21.7146
rfingers 7.12502
rthumb 9.13987 -8.06735
lclavicle 2.88238e-015 -3.83654e-014
lhumerus -0.0401366 -21.7882 86.6524
lradius 133.141
lwrist 9.91996
lhand -9.27579 9.78482
lfingers 7.12502
lthumb 16.681 39.0881
rfemur -22.4582 -23.3259 19.5009
rtibia 67.0948
rfoot -8.25338 5.42623
rtoes -4.97362
lfemur -27.9045 -4.7601 -7.94705
ltibia 29.8626
lfoot -2.22316 4.80557
ltoes -31.5047
12
root 3.69548 17.1472 16.5988 -9.42691 -75.2365 12.5863
lowerback 13.3498 1.04993 -3.48931
upperback 4.93095 0.756658 -0.243683
thorax -2.34074 0.276937 1.60266
lowerneck -7.5663 -0.808719 -12.0039
upperneck 19.8436 -0.572832 5.16929
head 7.38451 -0.803646 3.64422
rclavicle 1.51076e-014 -1.94809e-014
rhumerus -30.3761 22.9312 -93.4171
rradius 136.768
rwrist 6.67253
rhand -16.0365 21.4062
rfingers 7.12502
rthumb 10.1649 -8.32821
lclavicle 1.51076e-014 -1.94809e-014
lhumerus -0.573207 -21.4918 89.1827
lradius 133.295
lwrist 9.2635
lhand -10.2226 10.0667
lfingers 7.12502
lthumb 15.7693 39.4444
rfemur -23.833 -23.2389 21.0806
rtibia 66.984
rfoot -5.63924 6.69581
rtoes -4.19716
lfemur -28.0472 -5.34261 -6.43945
ltibia 29.5742
lfoot -3.24794 6.64254
ltoes -32.1114
13
root 3.81168 17.2541 16.56 -2.29835 -74.4196 5.77016
lowerback 13.524 0.639126 -1.61938
upperback 4.72633 0.486507 0.551628
thorax -2.6293 0.159585 1.41721
lowerneck -7.60563 -1.00849 -12.3881
upperneck 19.4726 -0.828336 5.49103
head 7.29626 -0.909059 3.78843
rclavicle -4.17448e-015 -2.78299e-015
rhumerus -30.1503 23.1745 -92.2526
rradius 137.478
rwrist 5.57861
rhand -15.0117 21.2363
rfingers 7.12502
rthumb 11.1535 -8.44725
lclavicle -4.17448e-015 -2.78299e-015
lhumerus -0.930887 -21.2716 89.3899
lradius 133.44
lwrist 8.7279
lhand -10.6952 10.129
lfingers 7.12502
lthumb 15.3141 39.5419
rfemur -25.4014 -23.1403 22.9077
rtibia 66.8963
rfoot -4.01504 7.63154
rtoes -0.688912
lfemur -28.7271 -5.57405 -4.77385
ltibia 30.2479
lfoot -3.55185 7.30451
ltoes -34.966
